<svg xmlns="http://www.w3.org/2000/svg" viewBox="0 0 1024 1024">
  <style>
    .m { fill: #0F52BA; }
    @media (prefers-color-scheme: dark) { .m { fill: #FFFFFF; } }
  </style>
  <path class="m" d="M 574.62 796.87 C563.09,801.18 551.70,798.14 543.20,788.49 C542.04,787.17 541.06,786.21 540.24,785.12 C535.98,779.48 535.98,770.62 536.00,691.07 C536.00,685.80 536.00,680.23 536.00,674.32 C536.00,619.14 535.65,574.00 535.22,574.00 C534.79,574.00 528.86,581.31 522.04,590.25 C492.18,629.40 468.91,658.21 449.95,679.50 C393.61,742.81 345.90,760.66 297.50,736.55 C280.86,728.27 265.80,716.01 253.48,700.75 C218.74,657.68 195.56,596.32 189.88,532.33 L 188.62 518.17 L 173.06 517.83 C158.38,517.52 157.18,517.34 151.79,514.69 C144.95,511.34 138.75,504.64 136.58,498.27 C133.01,487.81 135.74,475.57 143.24,468.33 C150.93,460.91 152.25,460.54 172.72,460.17 L 190.94 459.84 L 191.43 456.67 C195.65,429.51 198.13,418.67 204.51,399.50 C218.62,357.15 238.95,322.88 265.94,295.99 C288.20,273.80 311.01,261.08 336.88,256.41 C347.21,254.54 370.84,254.29 379.86,255.96 C433.60,265.85 475.00,305.48 526.44,396.25 C530.72,403.81 534.63,410.00 535.12,410.00 C535.62,410.00 536.00,367.77 536.00,311.04 C536.00,214.68 536.05,211.93 537.99,206.76 C540.16,200.97 546.17,194.40 552.00,191.45 C557.21,188.81 568.54,188.36 575.06,190.52 C583.00,193.16 588.99,199.59 591.79,208.50 L 594.00 215.50 L 593.75 318.25 C593.61,374.76 593.77,420.89 594.09,420.75 C594.41,420.61 615.18,399.58 640.23,374.00 C665.28,348.42 696.97,316.43 710.64,302.89 C738.27,275.55 739.08,275.00 751.93,275.00 C760.69,275.00 769.57,279.05 773.89,285.00 C780.53,294.17 781.68,305.89 776.86,315.20 C775.26,318.30 754.65,339.87 712.45,382.63 C647.78,448.15 638.00,458.23 638.00,459.33 C638.00,459.70 688.86,460.00 751.03,460.00 C850.26,460.00 864.51,460.19 867.73,461.53 C887.57,469.82 891.45,495.52 875.08,510.31 C873.74,511.52 872.87,512.53 871.87,513.37 C866.41,517.92 856.84,517.53 744.83,518.00 L 626.16 518.50 L 643.25 541.00 C694.49,608.46 775.63,716.88 777.82,720.80 C779.72,724.20 780.46,727.22 780.79,733.00 C781.30,741.83 779.58,747.00 773.98,753.37 C763.86,764.90 745.44,765.59 733.99,754.85 C732.60,753.56 701.10,712.06 663.99,662.63 C658.00,654.66 652.52,647.37 647.52,640.70 C596.97,573.38 594.13,569.60 593.76,569.83 C593.71,569.86 593.71,570.00 593.60,570.00 C593.22,570.00 593.02,616.46 593.16,673.25 L 593.40 776.50 L 590.97 781.50 C587.55,788.57 581.42,794.33 574.62,796.87 ZM 330.08 689.41 C333.06,690.21 336.87,690.90 338.54,690.93 C343.12,691.03 352.30,688.38 358.88,685.06 C379.76,674.52 409.66,643.73 452.65,588.50 C473.60,561.59 477.05,557.06 491.25,538.00 C498.41,528.38 504.72,519.94 505.26,519.25 C506.05,518.25 480.05,518.00 375.97,518.00 L 245.70 518.00 L 246.36 527.27 C247.67,545.94 252.59,570.34 259.59,592.82 C274.87,641.91 304.51,682.54 330.08,689.41 ZM 248.62 459.20 C249.33,460.34 494.75,460.22 495.45,459.08 C496.46,457.45 465.92,403.85 452.67,384.00 C418.13,332.25 391.00,311.00 359.48,311.00 C348.89,311.00 341.30,312.74 331.26,317.48 C322.05,321.82 316.55,325.62 308.32,333.32 C286.40,353.83 266.55,388.86 255.81,426.00 C252.14,438.69 247.94,458.09 248.62,459.20 Z"/>
</svg>
